<?xml version="1.0" encoding="utf-8"?>
<!-- Generator: Adobe Illustrator 27.5.0, SVG Export Plug-In . SVG Version: 6.00 Build 0)  -->
<svg version="1.1" xmlns="http://www.w3.org/2000/svg" xmlns:xlink="http://www.w3.org/1999/xlink" x="0px" y="0px"
	 viewBox="0 0 500 500" style="enable-background:new 0 0 500 500;" xml:space="preserve">
<g id="Background_Complete">
	<g>
		<g>
			<g>
				<path style="fill:#E0E0E0;" d="M242.573,126.305c0,0-0.039-0.479-0.075-1.413c-0.061-0.933-0.03-2.326-0.198-4.141
					c-0.227-3.633-0.84-8.998-2.507-15.714c-1.722-6.683-4.606-14.739-9.655-23.174c-5.041-8.402-12.267-17.193-22.108-24.687
					c-4.9-3.757-10.469-7.128-16.606-9.912c-6.133-2.781-12.834-5.013-19.98-6.297c-7.133-1.314-14.683-1.829-22.393-1.226
					c-7.714,0.527-15.563,2.193-23.242,4.944c-15.315,5.549-29.867,15.909-40.35,30.274c-10.537,14.268-16.858,32.476-16.822,51.333
					c-0.043,18.864,6.278,37.079,16.816,51.351c10.484,14.37,25.038,24.733,40.356,30.283c3.844,1.365,7.721,2.481,11.608,3.314
					c3.896,0.772,7.777,1.401,11.637,1.63c7.711,0.604,15.261,0.087,22.395-1.227c7.147-1.284,13.848-3.518,19.981-6.299
					c6.137-2.784,11.706-6.156,16.605-9.913c9.841-7.495,17.066-16.286,22.106-24.688c5.048-8.435,7.931-16.49,9.653-23.172
					c1.666-6.715,2.279-12.079,2.506-15.712c0.167-1.815,0.137-3.208,0.197-4.141C242.534,126.783,242.573,126.305,242.573,126.305
					s0.059,1.917-0.117,5.563c-0.178,3.642-0.743,9.026-2.37,15.775c-1.682,6.717-4.535,14.822-9.573,23.32
					c-5.03,8.465-12.265,17.331-22.146,24.901c-4.919,3.795-10.516,7.203-16.689,10.021c-6.169,2.814-12.913,5.078-20.111,6.386
					c-7.184,1.338-14.79,1.871-22.561,1.275c-3.891-0.226-7.803-0.853-11.732-1.627c-3.92-0.834-7.83-1.953-11.707-3.326
					c-15.451-5.577-30.139-16.014-40.723-30.503c-10.638-14.389-17.022-32.77-16.979-51.799
					c-0.037-19.022,6.347-37.396,16.984-51.781c10.583-14.484,25.268-24.919,40.717-30.495c7.745-2.765,15.661-4.433,23.436-4.952
					c7.77-0.596,15.376-0.064,22.559,1.273c7.197,1.307,13.941,3.57,20.11,6.385c6.172,2.818,11.77,6.225,16.689,10.02
					c9.882,7.569,17.117,16.436,22.148,24.901c5.038,8.498,7.892,16.604,9.575,23.322c1.627,6.75,2.193,12.135,2.371,15.778
					C242.632,124.387,242.573,126.305,242.573,126.305z"/>
			</g>
		</g>
		<g>
			<path style="fill:#E0E0E0;" d="M165.842,106.809l25.489,15.044c4.605,2.718,4.541,9.402-0.116,12.032l-25.773,14.552
				l-25.773,14.552c-4.657,2.629-10.413-0.768-10.362-6.116l0.284-29.596l0.284-29.596c0.051-5.347,5.872-8.634,10.477-5.916
				L165.842,106.809z"/>
		</g>
	</g>
	<g>
		<rect x="230.709" y="120.793" style="fill:#E0E0E0;" width="237.803" height="172.111"/>
	</g>
	<g>
		<rect x="214.991" y="136.512" style="fill:#F5F5F5;" width="237.803" height="172.111"/>
	</g>
</g>
<g id="Background_Simple" style="display:none;">
	<path style="display:inline;fill:#E0E0E0;" d="M105.947,302.704c-30.833-43.705-32.923-90.801-32.321-130.489
		c0.601-39.687,23.133-79.132,58.635-96.881s82.606-11.011,109.471,18.208c17.554,19.091,27.159,46.672,50.328,58.325
		c32.729,16.462,72.357-8.087,108.313-1.059c27.575,5.39,48.935,29.605,56.646,56.623s3.571,56.202-5.39,82.832
		c-9.017,26.795-23.745,52.944-47.427,68.386c-21.166,13.803-47.162,17.662-72.328,19.946c-41.648,3.78-84.228,4.087-124.609-6.788
		C166.884,360.932,128.604,337.854,105.947,302.704"/>
	<path style="display:inline;fill:#E0E0E0;" d="M365.764,98.195c-1.684-10.523-8.909-19.739-18.173-25.007
		c-9.264-5.268-17.319-7.645-27.684-4.019c-8.928,1.592-16.915,11.721-19.233,20.489c-2.318,8.767,0.13,18.46,5.647,25.657
		c5.518,7.197,13.855,11.971,22.691,14.015c8.426,1.949,17.769,1.396,25.044-3.282C363.02,120.283,367.448,108.718,365.764,98.195z"
		/>
</g>
<g id="Floor">
	<g>
		<g>
			<path style="fill:#263238;" d="M462.297,455.667c0,0.147-96.448,0.267-215.395,0.267c-118.988,0-215.415-0.12-215.415-0.267
				c0-0.147,96.427-0.267,215.415-0.267C365.85,455.4,462.297,455.52,462.297,455.667z"/>
		</g>
	</g>
</g>
<g id="Screen">
	<g>
		<g>
			<g>
				<g>
					<g>
						
							<rect x="224.029" y="120.039" transform="matrix(0.0012 -1 1 0.0012 74.0566 557.6727)" style="fill:#FAFAFA;" width="184.368" height="243.445"/>
					</g>
					<g>
						<g>
							<path style="fill:#263238;" d="M437.82,334.098c0-1.816,0.004-72.898,0.011-184.368l0.219,0.219
								c-68.849-0.072-152.852-0.161-243.424-0.257h-0.02l0.267-0.266c-0.092,66.324-0.18,129.118-0.257,184.367l-0.24-0.241
								C338.662,333.876,435.701,334.093,437.82,334.098c-2.118-0.001-99.158-0.026-243.445-0.064h-0.241l0-0.241
								c0.061-55.249,0.131-118.043,0.204-184.367l0-0.267h0.267h0.02c90.572,0.131,174.575,0.252,243.424,0.352l0.22,0l0,0.219
								C437.998,261.2,437.825,332.282,437.82,334.098z"/>
						</g>
					</g>
				</g>
				<g>
					<g>
						<path style="fill:#263238;" d="M435.76,166.737c0,0.147-53.872,0.2-120.311,0.117c-66.462-0.083-120.322-0.27-120.322-0.417
							c0-0.147,53.86-0.199,120.322-0.116C381.888,166.403,435.76,166.589,435.76,166.737z"/>
					</g>
				</g>
				<g>
					<path style="fill:#263238;" d="M207.832,158.419c-0.003,1.953-1.666,3.535-3.716,3.532c-2.05-0.003-3.71-1.588-3.708-3.541
						c0.003-1.953,1.666-3.535,3.716-3.532C206.175,154.88,207.834,156.466,207.832,158.419z"/>
				</g>
				<g>
					<path style="fill:#263238;" d="M218.702,158.433c-0.002,1.953-1.666,3.535-3.716,3.532c-2.05-0.003-3.71-1.588-3.707-3.542
						c0.002-1.953,1.666-3.535,3.716-3.532C217.045,154.894,218.705,156.479,218.702,158.433z"/>
				</g>
				<g>
					<path style="fill:#263238;" d="M229.573,158.446c-0.002,1.953-1.666,3.535-3.716,3.532c-2.05-0.003-3.71-1.588-3.707-3.542
						c0.002-1.953,1.666-3.535,3.716-3.532C227.916,154.907,229.575,156.493,229.573,158.446z"/>
				</g>
			</g>
		</g>
		<g>
			<g>
				<g>
					<path style="fill:#E8505B;" d="M374.075,272.077l-100.851-0.126c-11.56-0.014-20.92-9.397-20.905-20.958l0.005-4.014
						c0.014-11.56,9.398-20.92,20.958-20.905l100.851,0.126c11.56,0.014,20.92,9.397,20.905,20.958l-0.005,4.014
						C395.018,262.732,385.635,272.092,374.075,272.077z"/>
				</g>
				<g style="opacity:0.4;">
					<path d="M374.075,272.077l-100.851-0.126c-11.56-0.014-20.92-9.397-20.905-20.958l0.005-4.014
						c0.014-11.56,9.398-20.92,20.958-20.905l100.851,0.126c11.56,0.014,20.92,9.397,20.905,20.958l-0.005,4.014
						C395.018,262.732,385.635,272.092,374.075,272.077z"/>
				</g>
			</g>
			<g>
				<path style="fill:#E8505B;" d="M363.684,272.064l-100.851-0.126c-11.56-0.014-20.92-9.397-20.905-20.958l0.005-4.014
					c0.014-11.56,9.397-20.92,20.957-20.905l100.851,0.126c11.56,0.014,20.92,9.397,20.905,20.958l-0.005,4.014
					C384.628,262.719,375.245,272.079,363.684,272.064z"/>
			</g>
			<g>
				<g>
					<path style="fill:#FFFFFF;" d="M287.112,245.79c-0.004,3.283-2.469,5.321-6.404,5.316l-2.967-0.004l-0.006,4.062l-3.409-0.004
						l0.019-14.731l6.376,0.008C284.656,240.442,287.116,242.486,287.112,245.79z M283.66,245.786
						c0.002-1.62-1.049-2.569-3.132-2.572l-2.778-0.003l-0.006,5.114l2.778,0.004C282.605,248.331,283.658,247.385,283.66,245.786z"
						/>
					<path style="fill:#FFFFFF;" d="M289.541,240.448l3.409,0.004l-0.015,11.954l7.387,0.01l-0.004,2.778l-10.796-0.014
						L289.541,240.448z"/>
					<path style="fill:#FFFFFF;" d="M312.065,252.051l-6.839-0.008l-1.309,3.155l-3.493-0.005l6.584-14.723l3.367,0.005l6.568,14.74
						l-3.577-0.005L312.065,252.051z M310.995,249.461l-2.328-5.643l-2.344,5.637L310.995,249.461z"/>
					<path style="fill:#FFFFFF;" d="M324.654,250.004l-0.007,5.219l-3.409-0.005l0.007-5.261l-5.691-9.477l3.619,0.005l3.928,6.55
						l3.943-6.54l3.346,0.004L324.654,250.004z"/>
				</g>
				<g>
					<path style="fill:#FFFFFF;" d="M348.216,245.003l5.09,3.013c0.92,0.544,0.905,1.88-0.026,2.404l-5.154,2.902l-5.154,2.902
						c-0.931,0.524-2.081-0.156-2.069-1.225l0.064-5.914l0.064-5.914c0.012-1.069,1.176-1.724,2.095-1.18L348.216,245.003z"/>
				</g>
			</g>
		</g>
	</g>
</g>
<g id="Character">
	<g>
		<g>
			<g>
				<path style="fill:#A36957;" d="M152.492,299.358l45.949,44.812l48.918-51.913l17.268,15.126l-35.185,61.6
					c-3.164,5.511-7.605,10.252-13.12,13.409c-4.316,2.47-9.144,4.045-14.199,4.561h0c-10.548,1.077-21.034-2.559-28.651-9.936
					l-25.269-24.473L152.492,299.358z"/>
			</g>
			<g>
				<g>
					<path style="fill:#A36957;" d="M263.974,277.478c0,0,20.241-12.147,21.754-12.147c1.512,0,23.145-6.672,23.145-6.672
						l9.265-0.135c0,0,2.378,3.466-5.185,5.061l-4.773,1.627l-6.187,2.733l-5.375,2.377l3.733,0.684
						c1.792,0.328,3.302,1.532,4.021,3.206l3.59,8.361c0,0-0.302,9.378-2.117,10.285c-1.815,0.908-3.781,0-3.781,0
						s0.151,4.538-0.908,5.143c-1.059,0.605-3.327,0-3.327,0s-2.118,0.991-2.874,0.269c-0.756-0.723-1.21-3.596-1.21-3.596
						l-1.465-1.361l-7.667,3.337c-2.86,1.245-5.93,1.938-9.047,2.044l-6.32,0.214l-7.885,14.47l-18.77-16.06
						C242.59,297.317,253.391,285.738,263.974,277.478z"/>
				</g>
				<g>
					<path style="fill:#A36957;" d="M286.614,280.957c3.013,1.673,4.345,3.455,7.787,3.306c2.255-0.098,4.79-0.197,7.01-0.603
						c1.912-0.35,3.87-0.329,5.814-0.307c1.29,0.014,2.845,0.188,3.402,1.352c0.391,0.818,0.074,1.835-0.537,2.505
						c-0.611,0.67-1.46,1.064-2.293,1.421c-5.786,2.48-11.932,3.987-18.046,5.484"/>
				</g>
				<g>
					<g>
						<path style="fill:#7C3B29;" d="M300.354,275.468c0.056,0.023-0.114,0.71-0.711,1.689c-0.576,0.948-1.77,2.27-3.612,2.553
							c-0.931,0.139-1.752-0.139-2.464-0.287c-0.653-0.17-1.284-0.333-1.897-0.492c-1.074-0.298-1.739-0.387-1.744-0.454
							c-0.005-0.081,0.718-0.121,1.823,0.085c0.554,0.094,1.206,0.233,1.925,0.382c0.723,0.127,1.507,0.363,2.279,0.239
							c1.607-0.243,2.747-1.38,3.376-2.238C299.98,276.064,300.277,275.431,300.354,275.468z"/>
					</g>
				</g>
				<g>
					<g>
						<path style="fill:#7C3B29;" d="M300.728,283.663c-0.121,0.084-0.962-0.912-1.879-2.226c-0.917-1.314-1.563-2.447-1.442-2.532
							c0.121-0.084,0.962,0.912,1.879,2.226C300.204,282.445,300.849,283.578,300.728,283.663z"/>
					</g>
				</g>
				<g>
					<g>
						<path style="fill:#7C3B29;" d="M296.738,280.734c0.169,0,0.087,1.098-0.666,2.099c-0.715,1.012-1.587,1.545-1.671,1.429
							c-0.095-0.118,0.573-0.796,1.236-1.738C296.332,281.597,296.603,280.726,296.738,280.734z"/>
					</g>
				</g>
				<g>
					<g>
						<path style="fill:#7C3B29;" d="M287.704,279.434c-0.125,0.058-0.672-1.143-0.528-2.719c0.132-1.578,0.879-2.665,0.993-2.587
							c0.141,0.071-0.344,1.182-0.461,2.633C287.57,278.211,287.854,279.389,287.704,279.434z"/>
					</g>
				</g>
				<g>
					<g>
						<path style="fill:#7C3B29;" d="M291.132,293.664c-0.006-0.017,0.148-0.086,0.447-0.202c0.359-0.131,0.792-0.289,1.314-0.479
							c1.229-0.422,2.87-0.985,4.862-1.669c2.084-0.695,4.53-1.51,7.232-2.41c0.682-0.225,1.38-0.455,2.093-0.689
							c0.716-0.239,1.444-0.447,2.101-0.803c0.65-0.341,1.261-0.857,1.361-1.545c0.125-0.68-0.324-1.389-0.949-1.792
							c-0.634-0.407-1.434-0.524-2.216-0.567c-0.794-0.038-1.588-0.048-2.361-0.034c-1.548,0.029-3.036,0.176-4.423,0.469
							c-1.388,0.294-2.706,0.694-3.996,0.862c-1.287,0.186-2.539,0.077-3.597-0.24c-2.131-0.639-3.583-1.717-4.571-2.409
							c-0.492-0.358-0.863-0.65-1.112-0.852c-0.248-0.203-0.372-0.316-0.362-0.331c0.024-0.033,0.578,0.349,1.591,1.012
							c1.016,0.637,2.492,1.65,4.553,2.216c1.027,0.281,2.197,0.363,3.436,0.166c1.242-0.179,2.539-0.589,3.955-0.904
							c1.419-0.314,2.941-0.475,4.515-0.511c0.788-0.017,1.584-0.01,2.401,0.027c0.813,0.046,1.701,0.156,2.478,0.65
							c0.745,0.476,1.345,1.367,1.182,2.323c-0.156,0.957-0.943,1.558-1.639,1.923c-0.723,0.386-1.483,0.595-2.189,0.826
							c-0.715,0.229-1.414,0.453-2.098,0.672c-2.715,0.86-5.173,1.638-7.267,2.301c-2.013,0.618-3.673,1.127-4.914,1.508
							c-0.534,0.153-0.977,0.279-1.345,0.384C291.302,293.647,291.137,293.682,291.132,293.664z"/>
					</g>
				</g>
				<g>
					<g>
						<path style="fill:#7C3B29;" d="M296.178,291.784c0.142-0.038,0.62,1.307,1.066,3.002c0.446,1.696,0.692,3.101,0.55,3.138
							c-0.142,0.037-0.619-1.307-1.066-3.002C296.282,293.226,296.035,291.821,296.178,291.784z"/>
					</g>
				</g>
				<g>
					<g>
						<path style="fill:#7C3B29;" d="M301.572,290.389c0.143-0.032,0.386,0.511,0.478,1.225c0.093,0.713-0.005,1.301-0.151,1.306
							c-0.148,0.005-0.289-0.551-0.378-1.238C301.432,290.996,301.427,290.421,301.572,290.389z"/>
					</g>
				</g>
			</g>
			<g>
				<g>
					<path style="fill:#7C3B29;" d="M309.202,264.864c0.013,0.039-0.37,0.201-1.057,0.509c-0.792,0.351-1.766,0.782-2.913,1.291
						c-2.45,1.109-5.847,2.631-9.474,4.533c-0.9,0.486-1.779,0.963-2.586,1.477c-0.826,0.515-1.554,1.014-2.048,1.728
						c-1.024,1.398-1.476,2.96-1.59,4.266c-0.224,2.667,0.704,4.203,0.579,4.228c-0.021,0.011-0.261-0.34-0.523-1.059
						c-0.258-0.715-0.504-1.82-0.432-3.197c0.07-1.366,0.501-3.022,1.568-4.527c0.26-0.37,0.595-0.733,0.975-1.044
						c0.38-0.293,0.773-0.581,1.19-0.836c0.824-0.533,1.708-1.018,2.617-1.508c3.654-1.916,7.081-3.385,9.576-4.408
						c1.25-0.506,2.271-0.895,2.986-1.138C308.783,264.93,309.192,264.833,309.202,264.864z"/>
				</g>
			</g>
		</g>
		<g>
			<g>
				<g>
					<g>
						<path style="fill:#E8505B;" d="M174.826,455.811l-22.669-43.303l7.213-46.335l-3.636-72.509
							c-13.576-13.696-30.269-9.402-30.269-9.402H88.847c-4.767,1.66-23.633,5.056-28.436,7.758
							c-15.24,8.573-18.242,28.628-13.122,45.348l17.719,68.949l-2.395,50.335L174.826,455.811z"/>
					</g>
					<g>
						<g>
							<polygon style="fill:#E8505B;" points="155.734,293.664 194.491,337.333 152.146,363.442 							"/>
						</g>
					</g>
				</g>
			</g>
			<g style="opacity:0.4;">
				<g>
					<path d="M64.562,426.994c-1.474,7.391,3.584,14.867,10.176,18.522c6.591,3.655,14.385,4.304,21.915,4.647
						c22.078,1.005,44.337,0.036,65.983-4.425c-10.752-3.376-22.159-3.985-33.426-4.225s-22.615-0.144-33.697-2.189
						c-11.083-2.045-22.058-6.427-30.01-14.414"/>
				</g>
			</g>
			<g>
				<g>
					<g>
						<g>
							<path style="fill:#A36957;" d="M174.805,446.702c0,0-75.522-0.971-84.369-1.94c-11.288-1.236-24.59-8.578-28.746-24.538
								c-1.98-7.602-22.91-71.695-16.163-100.526c0.068-0.288,0.137-0.573,0.207-0.854c4.595-18.296,30.811-17.613,34.415,0.904
								l17.203,89.225l80.878,18.379l16.268-8.645l27.196,15.582l-4.066,12.413H174.805z"/>
						</g>
					</g>
				</g>
			</g>
			<g>
				<g>
					<path style="fill:#E8505B;" d="M62.299,291.611c-0.584,0.392-19.595,6.169-20.531,28.143
						c-0.992,23.294,2.788,59.311,2.788,59.311l48.823-3.366l-16.504-76.432L62.299,291.611z"/>
				</g>
			</g>
			<g>
				<g>
					<path style="fill:#263238;" d="M152.149,418.707c-0.018,0-0.033-0.278-0.045-0.808c-0.002-0.53-0.042-1.313-0.005-2.32
						c0.026-2.015,0.21-4.93,0.644-8.507c0.427-3.579,1.155-7.809,2.066-12.479c0.904-4.672,1.985-9.787,2.877-15.195
						c0.874-5.409,1.376-10.615,1.385-15.358c0.005-4.741-0.446-9.007-1.233-12.504c-0.775-3.498-1.755-6.245-2.575-8.075
						c-0.366-0.935-0.761-1.611-0.97-2.098c-0.225-0.479-0.336-0.735-0.32-0.744c0.016-0.009,0.158,0.23,0.415,0.694
						c0.24,0.472,0.666,1.135,1.064,2.063c0.882,1.813,1.925,4.561,2.754,8.078c0.841,3.514,1.335,7.813,1.357,12.586
						c0.018,4.775-0.472,10.013-1.35,15.443c-0.894,5.425-1.992,10.542-2.921,15.204c-0.936,4.661-1.701,8.872-2.174,12.432
						c-0.48,3.559-0.721,6.459-0.811,8.466c-0.069,1.003-0.063,1.784-0.095,2.313C152.188,418.429,152.167,418.707,152.149,418.707z
						"/>
				</g>
			</g>
			<g>
				<g>
					<path style="fill:#263238;" d="M44.556,379.065c-0.001-0.009,0.083-0.024,0.247-0.044c0.196-0.021,0.435-0.046,0.729-0.077
						c0.685-0.06,1.622-0.141,2.805-0.244c2.484-0.192,5.999-0.463,10.323-0.797c8.76-0.624,20.787-1.481,34.073-2.427
						c0.215-0.015,0.43-0.03,0.628-0.043l-0.245,0.306c-1.946-13.038-3.703-24.809-4.981-33.375c-0.606-4.233-1.098-7.67-1.446-10.1
						c-0.155-1.159-0.277-2.076-0.366-2.748c-0.033-0.288-0.06-0.524-0.082-0.716c-0.015-0.162-0.019-0.245-0.01-0.247
						c0.009-0.001,0.03,0.079,0.064,0.239c0.036,0.19,0.08,0.423,0.134,0.708c0.114,0.668,0.269,1.58,0.465,2.733
						c0.388,2.424,0.937,5.853,1.613,10.075c1.319,8.56,3.131,20.322,5.138,33.351l0.044,0.286l-0.29,0.02
						c-0.198,0.014-0.413,0.028-0.628,0.043c-13.29,0.886-25.32,1.688-34.083,2.271c-4.329,0.263-7.848,0.476-10.335,0.628
						c-1.187,0.061-2.125,0.109-2.812,0.144c-0.295,0.01-0.536,0.017-0.732,0.024C44.641,379.077,44.556,379.074,44.556,379.065z"/>
				</g>
			</g>
			<g>
				<g>
					<path style="fill:#263238;" d="M132.482,363.386c0.018-0.004,0.063,0.162,0.132,0.483c0.057,0.322,0.19,0.792,0.25,1.412
						c0.179,1.233,0.27,3.052,0.026,5.276c-0.238,2.222-0.893,4.843-2.167,7.522c-1.265,2.676-3.207,5.381-5.815,7.614
						c-2.638,2.199-5.63,3.662-8.48,4.463c-2.855,0.809-5.549,1.017-7.779,0.88c-2.233-0.131-4.012-0.524-5.198-0.906
						c-0.602-0.163-1.043-0.372-1.351-0.482c-0.304-0.121-0.46-0.194-0.454-0.211c0.032-0.145,2.595,1.059,7.018,1.222
						c2.197,0.087,4.837-0.158,7.626-0.976c2.785-0.81,5.7-2.254,8.272-4.398c2.542-2.178,4.453-4.81,5.716-7.421
						c1.272-2.613,1.954-5.175,2.235-7.356C133.094,366.122,132.334,363.394,132.482,363.386z"/>
				</g>
			</g>
			<g>
				<g>
					<path style="fill:#FAFAFA;" d="M48.026,380.728c-0.009,0.001-0.024-0.1-0.045-0.295c-0.02-0.226-0.046-0.513-0.078-0.87
						c-0.058-0.804-0.139-1.926-0.242-3.35c-0.19-2.911-0.425-7.126-0.624-12.339c-0.402-10.423-0.617-24.845-0.05-40.757
						c0.162-3.974,0.236-7.872,0.757-11.614c0.51-3.729,1.493-7.323,3.27-10.343c1.767-3.029,4.29-5.323,6.885-6.985
						c2.614-1.661,5.311-2.739,7.825-3.469c5.058-1.415,9.316-1.663,12.216-1.878c1.456-0.092,2.588-0.141,3.355-0.17
						c0.359-0.01,0.646-0.018,0.873-0.025c0.197-0.003,0.298,0.001,0.299,0.01c0.001,0.009-0.1,0.024-0.295,0.044
						c-0.226,0.02-0.512,0.046-0.87,0.078c-0.803,0.065-1.923,0.155-3.346,0.27c-2.891,0.278-7.132,0.586-12.126,2.033
						c-2.48,0.745-5.133,1.831-7.692,3.479c-2.54,1.65-4.991,3.905-6.7,6.861c-1.722,2.95-2.679,6.476-3.177,10.165
						c-0.508,3.699-0.58,7.588-0.742,11.561c-0.566,15.897-0.411,30.305-0.106,40.725c0.151,5.211,0.329,9.427,0.455,12.34
						c0.06,1.427,0.108,2.55,0.142,3.355c0.01,0.359,0.018,0.647,0.025,0.874C48.038,380.626,48.035,380.727,48.026,380.728z"/>
				</g>
			</g>
			<g>
				<g>
					<path style="fill:#FAFAFA;" d="M87.809,292.812c0.001,0.009-0.09,0.026-0.268,0.05c-0.209,0.025-0.468,0.055-0.789,0.093
						c-0.735,0.082-1.749,0.195-3.034,0.339c-2.62,0.346-6.457,0.79-10.963,2.218c-2.232,0.742-4.648,1.736-6.91,3.327
						c-2.254,1.579-4.331,3.776-5.73,6.539c-1.397,2.769-2.07,6.02-2.307,9.396c-0.242,3.385-0.076,6.915,0.044,10.529
						c0.539,14.461,1.957,27.499,3.256,36.888c0.648,4.696,1.25,8.486,1.675,11.104c0.208,1.277,0.372,2.284,0.49,3.014
						c0.047,0.32,0.085,0.578,0.116,0.786c0.023,0.178,0.031,0.27,0.022,0.271c-0.009,0.002-0.034-0.087-0.075-0.261
						c-0.044-0.205-0.1-0.461-0.168-0.777c-0.143-0.726-0.34-1.728-0.589-2.998c-0.488-2.608-1.148-6.392-1.844-11.086
						c-1.395-9.385-2.875-22.438-3.415-36.921c-0.119-3.615-0.284-7.159-0.032-10.587c0.248-3.416,0.941-6.738,2.39-9.579
						c1.45-2.837,3.602-5.085,5.917-6.681c2.323-1.609,4.783-2.595,7.047-3.322c4.568-1.396,8.423-1.782,11.056-2.066
						c1.322-0.122,2.35-0.202,3.048-0.24c0.323-0.016,0.584-0.029,0.794-0.04C87.716,292.801,87.808,292.802,87.809,292.812z"/>
				</g>
			</g>
			<g>
				<g>
					<path style="fill:#FAFAFA;" d="M79.149,377.928c-0.018,0.002-0.067-0.298-0.142-0.87c-0.075-0.62-0.176-1.456-0.304-2.507
						c-0.246-2.231-0.593-5.371-1.019-9.23c-0.813-7.843-1.928-18.594-3.16-30.471c-0.614-5.939-1.176-11.676-0.563-16.877
						c0.308-2.59,0.847-5.033,1.713-7.198c0.85-2.167,1.96-4.054,3.186-5.605c2.446-3.126,5.271-4.889,7.342-5.621
						c0.515-0.202,0.981-0.35,1.397-0.441c0.41-0.113,0.759-0.192,1.049-0.222c0.574-0.084,0.875-0.119,0.877-0.101
						c0.016,0.075-1.22,0.15-3.246,0.957c-2.018,0.781-4.755,2.559-7.119,5.658c-1.185,1.538-2.256,3.403-3.072,5.535
						c-0.83,2.126-1.347,4.538-1.637,7.092c-0.578,5.133-0.009,10.826,0.606,16.769c1.171,11.883,2.231,22.639,3.004,30.487
						c0.355,3.866,0.644,7.012,0.85,9.247c0.086,1.055,0.154,1.894,0.204,2.517C79.155,377.623,79.168,377.926,79.149,377.928z"/>
				</g>
			</g>
			<g>
				<g>
					<path style="fill:#FAFAFA;" d="M105.648,390.829c-0.018,0.003-0.08-0.305-0.182-0.893c-0.103-0.635-0.243-1.494-0.419-2.576
						c-0.348-2.29-0.838-5.519-1.441-9.488c-1.172-8.061-2.78-19.117-4.555-31.33c-1.739-12.247-3.326-23.32-4.378-31.366
						c-0.224-2.021-0.208-3.902,0.172-5.494c0.387-1.594,1.124-2.842,1.892-3.692c0.77-0.857,1.561-1.322,2.114-1.55
						c0.559-0.228,0.878-0.256,0.878-0.256c0.058,0.076-1.349,0.221-2.837,1.942c-0.722,0.846-1.411,2.074-1.757,3.622
						c-0.342,1.554-0.333,3.388-0.088,5.386c1.166,8.061,2.765,19.117,4.532,31.333c1.715,12.222,3.268,23.285,4.401,31.352
						c0.533,3.979,0.966,7.216,1.273,9.512c0.134,1.088,0.241,1.952,0.319,2.59C105.64,390.513,105.666,390.826,105.648,390.829z"/>
				</g>
			</g>
			<g>
				<g>
					<path style="fill:#FAFAFA;" d="M114.778,413.423c-0.08,0-0.131-1.272-0.251-3.32c-0.119-2.049-0.331-4.875-0.715-7.979
						c-0.387-3.105-0.874-5.897-1.26-7.913c-0.385-2.016-0.646-3.261-0.569-3.28c0.066-0.017,0.457,1.197,0.938,3.201
						c0.482,2.003,1.03,4.802,1.42,7.926c0.386,3.123,0.54,5.971,0.562,8.031C114.928,412.151,114.846,413.424,114.778,413.423z"/>
				</g>
			</g>
			<g>
				<g>
					<path style="fill:#FAFAFA;" d="M96.708,457.996c-0.146,0.017-0.553-2.531-0.909-5.69c-0.355-3.16-0.525-5.733-0.378-5.75
						c0.146-0.017,0.553,2.531,0.909,5.69C96.685,455.405,96.854,457.979,96.708,457.996z"/>
				</g>
			</g>
			<g>
				<g>
					<path style="fill:#FAFAFA;" d="M74.267,438.767c0.147,0.003,0.176,4.124,0.063,9.203c-0.112,5.081-0.323,9.196-0.47,9.193
						c-0.147-0.003-0.176-4.124-0.063-9.204C73.909,442.88,74.12,438.764,74.267,438.767z"/>
				</g>
			</g>
			<g>
				<g>
					<path style="fill:#FAFAFA;" d="M102.513,388.492c0.067-0.01,0.315,1.185,0.558,3.142c0.243,1.956,0.455,4.676,0.461,7.687
						c0.003,3.011-0.2,5.733-0.438,7.689c-0.236,1.957-0.481,3.153-0.548,3.143c-0.079-0.011,0.033-1.222,0.173-3.179
						c0.14-1.957,0.282-4.662,0.28-7.653c-0.006-2.99-0.157-5.694-0.303-7.651C102.55,389.714,102.434,388.503,102.513,388.492z"/>
				</g>
			</g>
			<g>
				<g>
					<path style="fill:#FAFAFA;" d="M112.37,456.753c-0.124,0.049-0.967-2.174-1.086-5.073c-0.136-2.9,0.509-5.188,0.637-5.149
						c0.159,0.029-0.238,2.307-0.103,5.126C111.931,454.476,112.526,456.71,112.37,456.753z"/>
				</g>
			</g>
			<g>
				<g>
					<path style="fill:#FAFAFA;" d="M130.694,420.378c-0.037,0.003-0.114-0.503-0.222-1.419c-0.117-1.018-0.266-2.32-0.444-3.88
						c-0.376-3.275-0.945-7.792-1.727-12.758c-0.786-4.967-1.637-9.441-2.288-12.672c-0.311-1.538-0.57-2.823-0.773-3.828
						c-0.18-0.905-0.262-1.41-0.226-1.418c0.036-0.009,0.187,0.48,0.428,1.371c0.244,0.891,0.567,2.187,0.939,3.795
						c0.746,3.216,1.658,7.689,2.446,12.668c0.784,4.978,1.295,9.514,1.576,12.803c0.141,1.645,0.234,2.978,0.276,3.9
						C130.723,419.864,130.73,420.375,130.694,420.378z"/>
				</g>
			</g>
			<g>
				<g>
					<path style="fill:#FAFAFA;" d="M131.059,330.643c0.018-0.003,0.09,0.301,0.212,0.885c0.125,0.63,0.293,1.482,0.505,2.556
						c0.431,2.221,1.016,5.442,1.705,9.428c1.38,7.971,3.121,19.014,4.728,31.253c1.602,12.244,2.766,23.363,3.487,31.421
						c0.362,4.029,0.627,7.291,0.783,9.548c0.072,1.092,0.128,1.959,0.17,2.599c0.033,0.595,0.042,0.908,0.023,0.909
						c-0.018,0.001-0.063-0.309-0.13-0.9c-0.066-0.638-0.157-1.502-0.27-2.59c-0.23-2.3-0.553-5.543-0.951-9.53
						c-0.817-8.045-2.039-19.151-3.641-31.388c-1.606-12.232-3.287-23.277-4.571-31.261c-0.643-3.954-1.166-7.172-1.537-9.453
						c-0.171-1.081-0.307-1.939-0.407-2.573C131.078,330.957,131.041,330.646,131.059,330.643z"/>
				</g>
			</g>
			<g>
				<g>
					<path style="fill:#FAFAFA;" d="M152.843,402.386c-0.009,0-0.021-0.083-0.036-0.244c-0.014-0.193-0.031-0.429-0.052-0.718
						c-0.036-0.676-0.086-1.598-0.149-2.762c-0.051-1.199-0.125-2.666-0.261-4.366c-0.129-1.7-0.229-3.639-0.457-5.773
						c-0.196-2.137-0.417-4.476-0.743-6.978c-0.272-2.508-0.688-5.172-1.097-7.978c-0.898-5.6-2.062-11.729-3.574-18.098
						c-1.543-6.364-3.286-12.355-5.026-17.754c-0.909-2.687-1.747-5.249-2.642-7.608c-0.844-2.378-1.709-4.563-2.504-6.556
						c-0.765-2.005-1.555-3.779-2.212-5.352c-0.65-1.577-1.25-2.917-1.748-4.009c-0.472-1.066-0.846-1.91-1.119-2.528
						c-0.112-0.267-0.204-0.485-0.279-0.664c-0.06-0.151-0.087-0.23-0.079-0.234s0.051,0.067,0.128,0.21
						c0.088,0.173,0.195,0.383,0.327,0.641c0.296,0.609,0.701,1.439,1.211,2.488c0.528,1.08,1.156,2.409,1.833,3.976
						c0.683,1.564,1.499,3.33,2.288,5.33c0.818,1.987,1.705,4.169,2.569,6.545c0.915,2.357,1.77,4.92,2.694,7.608
						c1.77,5.403,3.532,11.405,5.078,17.784c1.515,6.384,2.667,12.531,3.541,18.148c0.396,2.815,0.796,5.486,1.05,8.001
						c0.308,2.509,0.507,4.855,0.679,6.998c0.204,2.14,0.278,4.084,0.379,5.788c0.108,1.704,0.151,3.174,0.17,4.375
						c0.021,1.166,0.037,2.09,0.049,2.767c0,0.289-0.001,0.526-0.001,0.72C152.858,402.302,152.852,402.385,152.843,402.386z"/>
				</g>
			</g>
			<g>
				<g>
					<path style="fill:#FAFAFA;" d="M129.01,291.651c0.004-0.018,0.203,0.013,0.581,0.09c0.372,0.095,0.926,0.24,1.598,0.538
						c1.347,0.57,3.192,1.743,4.903,3.75c1.737,1.988,3.204,4.793,4.497,7.983c1.269,3.206,2.659,6.716,4.119,10.404
						c2.862,7.369,5.451,14.037,7.358,18.948c0.898,2.382,1.634,4.334,2.173,5.764c0.229,0.639,0.416,1.161,0.566,1.577
						c0.124,0.363,0.18,0.556,0.163,0.563c-0.017,0.007-0.107-0.174-0.263-0.524c-0.174-0.406-0.392-0.916-0.659-1.54
						c-0.578-1.415-1.368-3.346-2.331-5.702c-1.945-4.896-4.585-11.543-7.503-18.89c-1.445-3.691-2.821-7.205-4.078-10.414
						c-1.261-3.183-2.669-5.951-4.33-7.926c-1.638-1.994-3.405-3.187-4.701-3.805C129.802,291.839,128.995,291.707,129.01,291.651z"
						/>
				</g>
			</g>
			<g>
				<g>
					<path style="fill:#FAFAFA;" d="M111.163,314.493c0.018-0.001,0.048,0.262,0.088,0.764c0.037,0.553,0.087,1.283,0.149,2.194
						c0.131,1.963,0.314,4.704,0.539,8.066c0.49,6.807,1.334,16.199,2.68,26.523c1.354,10.327,2.953,19.621,4.229,26.325
						c0.647,3.307,1.175,6.002,1.553,7.932c0.174,0.896,0.314,1.614,0.42,2.158c0.09,0.495,0.129,0.756,0.111,0.76
						c-0.018,0.004-0.092-0.25-0.216-0.737c-0.131-0.539-0.303-1.249-0.518-2.137c-0.444-1.858-1.035-4.558-1.72-7.904
						c-1.373-6.691-3.033-15.989-4.388-26.329c-1.347-10.338-2.133-19.749-2.527-26.568c-0.199-3.41-0.321-6.171-0.37-8.081
						c-0.02-0.914-0.037-1.645-0.049-2.199C111.138,314.758,111.144,314.494,111.163,314.493z"/>
				</g>
			</g>
			<g>
				<g>
					<path style="fill:#FAFAFA;" d="M185.537,341.559c-0.016,0.01-0.187-0.234-0.499-0.706c-0.333-0.516-0.78-1.209-1.342-2.08
						c-1.174-1.863-2.824-4.483-4.852-7.701c-2.041-3.276-4.457-7.155-7.138-11.458c-2.7-4.301-5.572-9.104-8.749-14.014
						c-1.61-2.441-3.289-4.753-5.11-6.813c-1.814-2.065-3.785-3.853-5.818-5.35c-4.073-2.996-8.3-4.859-11.959-5.944
						c-3.667-1.103-6.776-1.422-8.908-1.557c-1.07-0.068-1.902-0.075-2.468-0.07c-0.565-0.005-0.863-0.017-0.864-0.035
						s0.295-0.043,0.861-0.072c0.566-0.04,1.402-0.067,2.479-0.03c2.147,0.071,5.288,0.335,9.005,1.402
						c3.708,1.049,8.002,2.896,12.145,5.91c2.067,1.504,4.077,3.314,5.919,5.4c1.848,2.081,3.546,4.412,5.164,6.866
						c3.192,4.935,6.042,9.731,8.722,14.05c2.644,4.326,5.028,8.225,7.04,11.518c1.967,3.256,3.569,5.906,4.708,7.79
						c0.526,0.893,0.945,1.603,1.257,2.132C185.412,341.287,185.553,341.549,185.537,341.559z"/>
				</g>
			</g>
			<g>
				<g>
					<path style="fill:#FAFAFA;" d="M173.402,349.541c-0.016,0.008-0.158-0.228-0.412-0.687c-0.273-0.506-0.635-1.177-1.088-2.017
						c-0.95-1.813-2.28-4.35-3.913-7.465c-3.281-6.37-7.77-15.088-12.73-24.719c-2.486-4.827-4.73-9.497-7.371-13.369
						c-2.604-3.89-5.642-6.912-8.653-8.767c-2.984-1.91-5.806-2.689-7.755-2.958c-1.963-0.259-3.07-0.13-3.071-0.194
						c0,0,1.1-0.21,3.097-0.012c1.98,0.209,4.87,0.944,7.928,2.844c3.085,1.842,6.208,4.895,8.86,8.81
						c2.692,3.901,4.957,8.582,7.44,13.403c4.906,9.659,9.346,18.402,12.591,24.79c1.57,3.147,2.849,5.711,3.762,7.542
						c0.416,0.859,0.749,1.546,0.999,2.063C173.309,349.279,173.418,349.532,173.402,349.541z"/>
				</g>
			</g>
			<g style="opacity:0.4;">
				<g>
					<path d="M101.637,389.656c-0.956,0.355-1.192,1.707-0.703,2.602c0.489,0.894,1.449,1.415,2.379,1.832
						c6.901,3.088,15.397,2.903,21.697-1.277c6.299-4.181,9.805-12.534,7.552-19.751c-1.471,6.31-5.732,11.916-11.417,15.024
						c-5.686,3.108-12.705,3.667-18.811,1.499"/>
				</g>
			</g>
			<g style="opacity:0.4;">
				<g>
					<path d="M154.151,341.716c-3.988-6.333-7.976-12.665-11.964-18.998c9.731,5.481,16.416,14.979,22.767,24.167
						c1.021,1.477,2.08,3.063,2.147,4.857c0.076,2.041-1.194,3.944-2.834,5.163c-1.639,1.218-3.618,1.873-5.56,2.508
						c-0.483-2.805-0.965-5.61-1.448-8.415"/>
				</g>
			</g>
		</g>
		<g>
			<g>
				<path style="fill:#263238;" d="M169.309,245.407c-1.634-1.308-3.946-1.485-5.618-2.745c-3.442-2.593-2.453-7.863-3.193-12.108
					c-0.806-4.622-3.949-8.422-6.442-12.398s-5.38-9.729-3.536-14.043l-33.65,61.695l52.776,0.001c0,0,1.607-9.705,1.889-12.536
					C171.816,250.442,171.53,247.185,169.309,245.407z"/>
			</g>
			<g>
				<path style="fill:#263238;" d="M99.38,184.142c1.626-4.964,7.043-7.772,12.23-8.396s7.731,1.493,12.828,0.348
					c7.004-1.574,11.081-3.95,15.71-3.195c4.18,0.681,9.491,1.986,13.265,6.356c2.768,3.205,2.867,10.709,1.715,14.785
					c-1.052,3.721-3.944,6.764-4.72,10.553c-0.718,3.511,0.483,7.086,1.259,10.585c2.33,10.505,0.527,22.271-6.437,30.474
					c-6.964,8.203-19.495,11.831-29.113,7.005"/>
			</g>
			<g>
				<g>
					<g>
						<g>
							<g>
								<g>
									<g>
										<g>
											<g>
												<g>
													<g>
														<g>
															<path style="fill:#A36957;" d="M129.411,331.088l-1.751-60.24c0,0,15.253-2.255,18.756-22.041
																c1.742-9.839,1.534-26.027,0.936-39.267c-0.538-11.916-13.153-24.032-25.036-22.988l-38.597,6.634l0.013,6.407
																l-0.383,87.941L129.411,331.088L129.411,331.088z"/>
														</g>
													</g>
												</g>
											</g>
										</g>
									</g>
									<g>
										<g>
											<g>
												<g>
													<g>
														<g>
															<g>
																<path style="fill:#263238;" d="M142.688,221.61c0.024,1.345-1.096,2.473-2.499,2.524
																	c-1.401,0.05-2.558-0.996-2.582-2.341c-0.023-1.344,1.095-2.475,2.496-2.525
																	C141.507,219.217,142.665,220.266,142.688,221.61z"/>
															</g>
														</g>
													</g>
												</g>
											</g>
										</g>
										<g>
											<g>
												<g>
													<g>
														<g>
															<g>
																<g>
																	<path style="fill:#263238;" d="M143.693,217.894c-0.321,0.326-2.224-1.135-4.963-1.176
																		c-2.734-0.081-4.769,1.292-5.06,0.952c-0.144-0.151,0.188-0.744,1.075-1.366c0.873-0.619,2.353-1.21,4.059-1.172
																		c1.705,0.04,3.129,0.693,3.942,1.351C143.576,217.143,143.851,217.748,143.693,217.894z"/>
																</g>
															</g>
														</g>
													</g>
												</g>
											</g>
										</g>
									</g>
									<g>
										<g>
											<g>
												<g>
													<g>
														<g>
															<g>
																<path style="fill:#263238;" d="M116.75,221.149c0.024,1.345-1.096,2.473-2.499,2.524
																	c-1.401,0.05-2.559-0.996-2.582-2.341c-0.024-1.344,1.095-2.475,2.497-2.525
																	C115.569,218.756,116.727,219.805,116.75,221.149z"/>
															</g>
														</g>
													</g>
												</g>
											</g>
										</g>
										<g>
											<g>
												<g>
													<g>
														<g>
															<g>
																<g>
																	<path style="fill:#263238;" d="M116.767,217.926c-0.322,0.326-2.227-1.134-4.963-1.176
																		c-2.735-0.08-4.769,1.292-5.061,0.952c-0.142-0.151,0.186-0.744,1.076-1.366c0.872-0.62,2.352-1.21,4.058-1.173
																		c1.706,0.04,3.129,0.693,3.943,1.35C116.648,217.175,116.924,217.781,116.767,217.926z"/>
																</g>
															</g>
														</g>
													</g>
												</g>
											</g>
										</g>
									</g>
									<g>
										<g>
											<g>
												<g>
													<g>
														<g>
															<g>
																<path style="fill:#263238;" d="M126.344,238.41c-0.01-0.156,1.698-0.419,4.462-0.723
																	c0.7-0.06,1.365-0.187,1.491-0.662c0.174-0.502-0.105-1.261-0.43-2.081c-0.627-1.704-1.284-3.489-1.973-5.361
																	c-2.737-7.632-4.705-13.902-4.397-14.01c0.309-0.107,2.777,5.991,5.514,13.623c0.658,1.882,1.287,3.675,1.885,5.391
																	c0.251,0.799,0.69,1.708,0.314,2.751c-0.198,0.519-0.718,0.889-1.168,1.002c-0.451,0.128-0.844,0.129-1.19,0.144
																	C128.074,238.584,126.352,238.566,126.344,238.41z"/>
															</g>
														</g>
													</g>
												</g>
											</g>
										</g>
									</g>
									<g>
										<g>
											<g>
												<g>
													<g>
														<g>
															<path style="fill:#7C3B29;" d="M127.66,270.847c0,0-13.364,0.623-26.447-7.561c0,0,6.205,13.745,26.096,12.241
																L127.66,270.847z"/>
														</g>
													</g>
												</g>
											</g>
										</g>
									</g>
									<g>
										<g>
											<g>
												<g>
													<g>
														<g>
															<path style="fill:#7C3B29;" d="M125.069,244.989c-0.962-1.32-2.674-2.065-4.391-1.911
																c-1.19,0.107-2.401,0.658-3.14,1.613c-0.739,0.955-0.915,2.326-0.275,3.26c0.72,1.052,2.26,1.319,3.574,0.971
																c1.314-0.348,2.454-1.189,3.537-2.027c0.3-0.232,0.606-0.474,0.797-0.796c0.19-0.322,0.237-0.746,0.014-1.019"/>
														</g>
													</g>
												</g>
											</g>
										</g>
									</g>
									<g>
										<g>
											<g>
												<g>
													<g>
														<g>
															<g>
																<path style="fill:#263238;" d="M118.252,240.161c0.446-0.018,0.399,2.954,2.905,5.109
																	c2.502,2.162,5.676,1.884,5.692,2.3c0.038,0.187-0.716,0.564-2.054,0.577c-1.313,0.022-3.221-0.434-4.754-1.751
																	c-1.529-1.322-2.166-3.06-2.246-4.281C117.704,240.871,118.049,240.14,118.252,240.161z"/>
															</g>
														</g>
													</g>
												</g>
											</g>
										</g>
									</g>
								</g>
							</g>
						</g>
						<g>
							<g>
								<g>
									<g>
										<g>
											<g>
												<path style="fill:#263238;" d="M117.665,207.208c-0.284,0.74-3.011,0.338-6.23,0.668
													c-3.227,0.266-5.834,1.16-6.248,0.485c-0.185-0.323,0.279-1.015,1.34-1.717c1.051-0.701,2.72-1.356,4.652-1.536
													c1.932-0.176,3.693,0.161,4.854,0.658C117.204,206.261,117.787,206.857,117.665,207.208z"/>
											</g>
										</g>
									</g>
								</g>
							</g>
						</g>
						<g>
							<g>
								<g>
									<g>
										<g>
											<g>
												<path style="fill:#263238;" d="M142.827,209.951c-0.493,0.613-2.368-0.066-4.635-0.136
													c-2.265-0.15-4.196,0.343-4.627-0.315c-0.188-0.319,0.126-0.937,0.976-1.511c0.837-0.572,2.229-1.027,3.787-0.952
													c1.557,0.077,2.898,0.665,3.676,1.316C142.793,209.006,143.045,209.651,142.827,209.951z"/>
											</g>
										</g>
									</g>
								</g>
							</g>
						</g>
					</g>
				</g>
			</g>
			<g>
				<path style="fill:#263238;" d="M106.639,177.01c3.907,6.289,5.134,14.184,3.32,21.362c-1.814,7.178-6.645,13.542-13.071,17.22
					c-2.208,1.263-4.713,2.332-6.058,4.491c-1.709,2.744-0.978,6.261-0.663,9.478c0.852,8.685-1.956,17.671-7.602,24.326
					c-3.782-7.369-7.605-14.853-9.268-22.967c-0.84-4.101-1.125-8.351-2.615-12.263c-0.888-2.332-2.19-4.499-2.952-6.876
					c-1.392-4.336-0.883-9.106,0.584-13.417c2.658-7.815,8.5-14.495,15.892-18.171c7.391-3.676,16.243-4.304,24.08-1.709"/>
			</g>
			<g>
				<path style="fill:#263238;" d="M72.132,190.768c-8.932,13.07-4.582,21.582-8.047,28.276c-2.512,4.853-8.345,6.792-12.487,10.356
					c-5.636,4.85-7.93,12.715-7.718,20.147c0.212,7.433,2.607,14.608,4.979,21.655c16.008,0.079,32.016,0.158,48.024,0.236
					c3.714-11.706-5.577-24.391-2.592-36.304c1.019-4.069,3.444-7.817,3.582-12.009c0.092-2.788-0.844-5.492-1.464-8.212
					c-1.746-7.659-0.952-15.875,2.228-23.058"/>
			</g>
			<g>
				<g>
					<path style="fill:#455A64;" d="M155.172,185.013c-0.061,0.032-0.327-0.628-1.097-1.619c-0.761-0.989-2.136-2.241-4.169-3.178
						c-2.024-0.938-4.698-1.519-7.651-1.396c-2.959,0.128-6.14,1.029-9.384,2.164c-3.251,1.142-6.327,2.364-9.265,3.077
						c-2.93,0.717-5.68,0.934-7.959,0.707c-2.282-0.226-4.061-0.862-5.182-1.469c-0.56-0.31-0.981-0.568-1.244-0.779
						c-0.27-0.198-0.406-0.309-0.395-0.324c0.035-0.052,0.594,0.38,1.731,0.917c1.131,0.54,2.885,1.105,5.122,1.28
						c2.235,0.174,4.928-0.077,7.808-0.809c2.884-0.727,5.94-1.956,9.207-3.104c3.264-1.141,6.496-2.046,9.541-2.151
						c3.035-0.098,5.77,0.538,7.832,1.546c2.071,1.008,3.448,2.345,4.174,3.394c0.358,0.532,0.613,0.957,0.739,1.27
						C155.122,184.843,155.188,185.005,155.172,185.013z"/>
				</g>
			</g>
			<g>
				<g>
					<path style="fill:#455A64;" d="M148.223,218.618c0.011-0.015,0.166,0.092,0.454,0.311c0.15,0.104,0.316,0.252,0.501,0.442
						c0.197,0.179,0.404,0.404,0.614,0.678c0.895,1.053,1.756,2.935,2.129,5.366c0.192,1.214,0.287,2.559,0.289,3.998
						c0.006,1.442-0.079,2.966-0.046,4.566c0.031,1.595,0.136,3.279,0.572,4.943c0.414,1.662,1.231,3.297,2.559,4.52
						c1.331,1.224,3.01,1.955,4.524,2.865c1.533,0.874,2.896,2.091,3.667,3.569c1.575,2.962,1.414,6.12,0.878,8.481
						c-0.554,2.401-1.392,4.209-1.95,5.449c-0.286,0.619-0.52,1.094-0.682,1.414c-0.163,0.319-0.257,0.483-0.274,0.476
						c-0.017-0.008,0.045-0.186,0.176-0.52c0.158-0.388,0.352-0.868,0.59-1.452c0.497-1.261,1.276-3.083,1.771-5.445
						c0.246-1.179,0.383-2.497,0.279-3.901c-0.104-1.398-0.457-2.892-1.217-4.263c-0.746-1.391-1.999-2.501-3.504-3.357
						c-1.48-0.887-3.193-1.618-4.618-2.923c-1.42-1.307-2.282-3.056-2.703-4.782c-0.446-1.732-0.539-3.452-0.557-5.068
						c-0.019-1.619,0.083-3.152,0.096-4.573c0.017-1.424-0.054-2.748-0.219-3.942c-0.32-2.391-1.1-4.231-1.921-5.296
						C148.824,219.093,148.18,218.667,148.223,218.618z"/>
				</g>
			</g>
			<g>
				<g>
					<path style="fill:#455A64;" d="M66.492,269.41c-0.008,0.004-0.055-0.08-0.138-0.248c-0.082-0.169-0.207-0.418-0.352-0.754
						c-0.297-0.668-0.714-1.665-1.146-2.988c-0.429-1.322-0.884-2.972-1.153-4.937c-0.268-1.959-0.355-4.245,0.057-6.719
						c0.419-2.459,1.326-5.127,3.048-7.543c1.714-2.451,4.345-4.284,6.901-6.289c1.281-1.009,2.542-2.109,3.599-3.423
						c1.042-1.321,1.817-2.885,2.201-4.595c0.794-3.436,0.258-7.161-0.511-10.829c-0.799-3.679-1.676-7.343-1.52-10.977
						c0.071-1.808,0.444-3.587,1.163-5.189c0.717-1.605,1.781-2.988,2.981-4.138c2.424-2.301,5.284-3.748,7.975-4.871
						c2.703-1.123,5.271-2.008,7.522-3.024c2.256-1.002,4.188-2.143,5.685-3.403c1.507-1.247,2.586-2.569,3.295-3.744
						c0.718-1.175,1.072-2.198,1.257-2.898c0.19-0.701,0.237-1.084,0.266-1.079c0,0-0.004,0.388-0.161,1.105
						c-0.153,0.715-0.48,1.766-1.182,2.978c-0.693,1.212-1.768,2.578-3.281,3.866c-1.502,1.303-3.456,2.487-5.721,3.519
						c-2.261,1.047-4.83,1.956-7.506,3.088c-2.662,1.13-5.463,2.573-7.806,4.817c-1.16,1.12-2.176,2.454-2.857,3.992
						c-0.684,1.537-1.04,3.246-1.106,5.003c-0.146,3.533,0.716,7.15,1.52,10.844c0.772,3.691,1.328,7.486,0.498,11.059
						c-0.401,1.776-1.221,3.422-2.311,4.792c-1.102,1.361-2.398,2.479-3.693,3.492c-2.59,2.012-5.173,3.799-6.847,6.162
						c-1.689,2.337-2.6,4.939-3.035,7.349c-0.828,4.88,0.156,8.909,0.922,11.529c0.398,1.324,0.782,2.33,1.047,3.009
						c0.124,0.316,0.223,0.571,0.302,0.773C66.47,269.315,66.5,269.407,66.492,269.41z"/>
				</g>
			</g>
			<g>
				<g>
					<path style="fill:#455A64;" d="M107.092,181.773c-0.001,0.009-0.112,0.005-0.326-0.013c-0.243-0.023-0.556-0.053-0.949-0.09
						c-0.835-0.069-2.064-0.191-3.652-0.256c-3.154-0.108-7.842-0.156-13.287,1.46c-2.703,0.819-5.56,2.123-8.215,4.122
						c-2.643,1.987-5.098,4.693-6.622,8.091c-1.565,3.395-1.872,7.398-1.816,11.461c0.035,4.07,0.394,8.367-0.437,12.699
						c-0.422,2.15-1.108,4.258-2.257,6.09c-1.122,1.852-2.728,3.328-4.445,4.476c-3.451,2.29-7.223,3.669-10.085,6.069
						c-2.861,2.386-4.487,5.737-5.11,8.971c-0.649,3.252-0.443,6.408,0.204,9.148c0.646,2.756,1.691,5.12,2.718,7.12
						c1.043,1.998,2.096,3.636,2.983,4.954c0.891,1.316,1.624,2.311,2.115,2.99c0.232,0.32,0.417,0.574,0.561,0.771
						c0.124,0.175,0.184,0.268,0.177,0.274c-0.007,0.006-0.082-0.076-0.22-0.24c-0.154-0.189-0.353-0.433-0.603-0.739
						c-0.52-0.658-1.28-1.635-2.2-2.937c-0.916-1.304-1.999-2.933-3.076-4.933c-1.06-2.002-2.141-4.38-2.821-7.17
						c-0.681-2.781-0.916-5.993-0.272-9.323c0.617-3.309,2.273-6.781,5.228-9.262c2.943-2.479,6.742-3.876,10.108-6.126
						c1.678-1.128,3.209-2.541,4.287-4.322c1.104-1.762,1.772-3.807,2.185-5.911c0.815-4.24,0.468-8.496,0.438-12.594
						c-0.049-4.084,0.267-8.177,1.891-11.667c1.579-3.486,4.104-6.237,6.806-8.244c2.714-2.019,5.629-3.324,8.372-4.129
						c5.527-1.589,10.243-1.477,13.406-1.307c1.592,0.097,2.821,0.253,3.654,0.357c0.391,0.059,0.702,0.107,0.944,0.143
						C106.985,181.742,107.093,181.764,107.092,181.773z"/>
				</g>
			</g>
			<g>
				<g>
					<path style="fill:#455A64;" d="M81.779,271.501c-0.058-0.085,1.372-0.479,3.143-2.279c0.874-0.892,1.791-2.145,2.529-3.763
						c0.706-1.626,1.284-3.599,1.433-5.833c0.193-2.23-0.119-4.693-0.726-7.258c-0.611-2.57-1.567-5.238-2.596-8.04
						c-1.022-2.801-2.124-5.764-2.787-8.976c-0.67-3.189-0.925-6.68-0.043-10.091c0.446-1.696,1.198-3.287,2.143-4.705
						c0.96-1.411,2.1-2.65,3.297-3.768c2.402-2.238,5.015-4.002,7.378-5.814c2.366-1.802,4.547-3.624,6.181-5.692
						c1.659-2.045,2.874-4.208,3.711-6.287c1.684-4.17,2.011-7.882,1.933-10.381c-0.006-0.629-0.037-1.187-0.09-1.669
						c-0.036-0.484-0.075-0.892-0.13-1.22c-0.04-0.303-0.072-0.549-0.098-0.749c-0.019-0.17-0.025-0.257-0.015-0.259
						c0,0,0.405,1.354,0.541,3.891c0.142,2.518-0.127,6.279-1.791,10.529c-0.827,2.118-2.042,4.328-3.716,6.423
						c-1.653,2.122-3.859,3.985-6.227,5.805c-2.366,1.83-4.964,3.6-7.319,5.805c-1.174,1.102-2.284,2.313-3.213,3.682
						c-0.913,1.376-1.636,2.907-2.067,4.546c-0.853,3.295-0.615,6.705,0.039,9.849c0.646,3.164,1.727,6.105,2.738,8.914
						c1.016,2.807,1.965,5.499,2.564,8.106c0.595,2.599,0.893,5.112,0.672,7.39c-0.177,2.278-0.792,4.282-1.538,5.928
						c-0.779,1.639-1.74,2.899-2.654,3.785c-0.904,0.906-1.776,1.402-2.354,1.73c-0.28,0.127-0.508,0.229-0.693,0.313
						C81.865,271.479,81.783,271.509,81.779,271.501z"/>
				</g>
			</g>
			<g>
				<path style="fill:#263238;" d="M109.148,190.316c5.078,3.555,10.702,7.271,16.885,6.832c3.671-0.261,7.053-1.977,10.546-3.132
					c3.494-1.155,7.551-1.694,10.68,0.242c2.025-0.17,2.97-2.918,2.076-4.742s-2.892-2.813-4.815-3.468
					c-11.118-3.788-22.205,0.505-34.705,1.317"/>
			</g>
			<g>
				<g>
					<path style="fill:#455A64;" d="M154.702,193.571c-0.072-0.022,0.405-0.662,0.413-1.975c0.022-1.256-0.592-3.313-2.608-4.529
						c-0.977-0.609-2.224-0.991-3.582-1.063c-1.359-0.076-2.821,0.192-4.275,0.704c-2.946,0.988-5.73,3.104-9.11,4.531
						c-1.684,0.716-3.412,1.222-5.113,1.501c-1.698,0.297-3.365,0.422-4.948,0.362c-3.172-0.062-5.979-0.768-8.202-1.63
						c-2.227-0.874-3.889-1.89-4.957-2.685c-0.549-0.377-0.921-0.743-1.194-0.962c-0.265-0.229-0.397-0.356-0.385-0.37
						c0.081-0.135,2.228,2.02,6.669,3.664c2.205,0.804,4.969,1.458,8.08,1.492c1.552,0.046,3.185-0.087,4.845-0.385
						c1.665-0.28,3.352-0.779,4.997-1.478c3.293-1.383,6.112-3.506,9.157-4.504c1.504-0.514,3.031-0.78,4.462-0.681
						c1.425,0.095,2.733,0.519,3.757,1.186c1.033,0.656,1.754,1.562,2.139,2.447c0.399,0.884,0.508,1.731,0.475,2.406
						c-0.028,0.679-0.199,1.188-0.348,1.507C154.828,193.43,154.713,193.578,154.702,193.571z"/>
				</g>
			</g>
		</g>
		<g>
			<g>
				<g>
					<g>
						<path style="fill:#263238;" d="M227.201,366.743l-45.657,79.726l-64.653,2.239v7.117h188.885l51.404-84.213
							c1.945-3.187-0.348-7.275-4.082-7.275H231.351C229.636,364.337,228.053,365.255,227.201,366.743z"/>
					</g>
				</g>
				<g>
					<g>
						<path style="fill:#E0E0E0;" d="M280.281,412.923c-2.298,3.576-6.252,5.131-8.832,3.473c-2.58-1.658-2.808-5.901-0.51-9.477
							c2.298-3.576,6.252-5.131,8.832-3.473C282.35,405.105,282.579,409.347,280.281,412.923z"/>
					</g>
				</g>
			</g>
			<g>
				<g>
					<path style="fill:#455A64;" d="M187.584,455.505c-0.129-0.072,11.199-20.541,25.297-45.712
						c14.103-25.18,25.636-45.528,25.765-45.456c0.128,0.072-11.196,20.536-25.299,45.717
						C199.249,435.225,187.713,455.577,187.584,455.505z"/>
				</g>
			</g>
		</g>
	</g>
</g>
<g id="Plant">
	<g>
		<g>
			<polygon style="fill:#E8505B;" points="385.472,404.078 393.298,455.505 438.762,455.505 449.315,404.822 			"/>
		</g>
		<g>
			<g>
				<g>
					<path style="fill:#FAFAFA;" d="M442.958,437.038c0,0.147-11.65,0.267-26.017,0.267c-14.373,0-26.02-0.119-26.02-0.267
						c0-0.147,11.647-0.267,26.02-0.267C431.308,436.771,442.958,436.89,442.958,437.038z"/>
				</g>
			</g>
			<g>
				<g>
					<path style="fill:#FAFAFA;" d="M443.134,434.508c0,0.147-11.729,0.267-26.194,0.267c-14.47,0-26.196-0.12-26.196-0.267
						c0-0.147,11.726-0.267,26.196-0.267C431.405,434.242,443.134,434.361,443.134,434.508z"/>
				</g>
			</g>
			<g>
				<g>
					<path style="fill:#FAFAFA;" d="M443.044,431.652c0,0.147-11.729,0.267-26.194,0.267c-14.47,0-26.196-0.119-26.196-0.267
						c0-0.147,11.726-0.267,26.196-0.267C431.315,431.385,443.044,431.504,443.044,431.652z"/>
				</g>
			</g>
			<g>
				<g>
					<path style="fill:#FAFAFA;" d="M398.52,452.571c-0.145,0.025-0.77-2.874-1.395-6.475c-0.625-3.602-1.014-6.542-0.869-6.567
						c0.145-0.025,0.769,2.874,1.395,6.475C398.276,449.606,398.665,452.546,398.52,452.571z"/>
				</g>
			</g>
			<g>
				<g>
					<path style="fill:#FAFAFA;" d="M401.613,452.025c-0.151,0.003-0.324-2.83-0.564-6.318c-0.235-3.489-0.447-6.319-0.297-6.337
						c0.143-0.017,0.593,2.796,0.829,6.3C401.822,449.173,401.757,452.023,401.613,452.025z"/>
				</g>
			</g>
			<g>
				<g>
					<path style="fill:#FAFAFA;" d="M407.25,452.023c-0.141,0.025-0.762-2.863-1.183-6.478c-0.426-3.615-0.489-6.568-0.346-6.576
						c0.151-0.01,0.452,2.915,0.876,6.514C407.016,449.081,407.399,451.997,407.25,452.023z"/>
				</g>
			</g>
			<g>
				<g>
					<path style="fill:#FAFAFA;" d="M411.207,452.294c-0.143,0.013-0.514-2.93-0.63-6.582c-0.121-3.653,0.058-6.613,0.201-6.609
						c0.151,0.003,0.211,2.955,0.332,6.592C411.226,449.331,411.358,452.282,411.207,452.294z"/>
				</g>
			</g>
			<g>
				<g>
					<path style="fill:#FAFAFA;" d="M418.212,452.025c-0.147,0.005-0.362-2.792-0.479-6.247c-0.117-3.456-0.092-6.26,0.055-6.265
						c0.147-0.005,0.362,2.792,0.478,6.247C418.384,449.215,418.359,452.02,418.212,452.025z"/>
				</g>
			</g>
			<g>
				<g>
					<path style="fill:#FAFAFA;" d="M423.328,452.296c-0.147-0.001-0.243-2.895-0.214-6.462c0.029-3.569,0.172-6.46,0.319-6.459
						c0.147,0.001,0.243,2.894,0.214,6.463C423.619,449.405,423.476,452.297,423.328,452.296z"/>
				</g>
			</g>
			<g>
				<g>
					<path style="fill:#FAFAFA;" d="M428.126,451.609c-0.147-0.014,0.027-3.038,0.387-6.754c0.361-3.717,0.772-6.717,0.919-6.703
						c0.147,0.014-0.027,3.038-0.388,6.754C428.684,448.622,428.272,451.623,428.126,451.609z"/>
				</g>
			</g>
			<g>
				<g>
					<path style="fill:#FAFAFA;" d="M434.311,450.935c-0.141-0.017,0.081-2.612,0.765-5.744c0.678-3.134,1.555-5.585,1.69-5.543
						c0.146,0.044-0.496,2.547-1.169,5.656C434.918,448.412,434.462,450.956,434.311,450.935z"/>
				</g>
			</g>
		</g>
		<g>
			<g>
				<g>
					<path style="fill:#455A64;" d="M429.933,302.601c0.009,0.003-0.01,0.089-0.055,0.254c-0.057,0.194-0.126,0.433-0.212,0.727
						c-0.21,0.676-0.499,1.603-0.865,2.776c-0.389,1.2-0.854,2.673-1.335,4.4c-0.49,1.724-1.098,3.673-1.64,5.863
						c-0.577,2.181-1.202,4.571-1.772,7.161c-0.631,2.576-1.162,5.36-1.754,8.282c-1.09,5.862-2.084,12.345-2.786,19.191
						c-0.665,6.852-0.972,13.405-1.063,19.368c0.003,2.982-0.027,5.816,0.082,8.466c0.046,2.652,0.186,5.119,0.321,7.371
						c0.098,2.254,0.309,4.284,0.448,6.071c0.131,1.788,0.295,3.323,0.439,4.577c0.126,1.222,0.226,2.188,0.299,2.892
						c0.026,0.305,0.047,0.553,0.064,0.754c0.011,0.17,0.013,0.258,0.004,0.259c-0.009,0.001-0.029-0.084-0.058-0.252
						c-0.031-0.199-0.07-0.445-0.117-0.747c-0.097-0.701-0.23-1.664-0.399-2.881c-0.176-1.251-0.371-2.785-0.53-4.573
						c-0.168-1.787-0.406-3.818-0.528-6.075c-0.159-2.254-0.322-4.724-0.387-7.382c-0.129-2.655-0.115-5.496-0.132-8.484
						c0.064-5.977,0.356-12.548,1.023-19.416c0.703-6.863,1.715-13.361,2.834-19.231c0.607-2.926,1.155-5.713,1.806-8.29
						c0.589-2.592,1.237-4.981,1.838-7.159c0.566-2.188,1.201-4.132,1.718-5.851c0.509-1.721,1.003-3.186,1.423-4.378
						c0.406-1.161,0.727-2.078,0.96-2.746c0.106-0.287,0.192-0.52,0.262-0.71C429.888,302.677,429.924,302.598,429.933,302.601z"/>
				</g>
			</g>
			<g>
				<path style="fill:#455A64;" d="M421.727,334.444c1.227-3.674,3.774-6.891,7.068-8.928c1.126-0.696,2.547-1.263,3.74-0.687
					c1.586,0.767,1.714,2.999,1.241,4.696c-0.796,2.854-2.661,5.397-5.145,7.013c-2.484,1.616-4.79,2.377-7.722,1.948"/>
			</g>
			<g>
				<path style="fill:#455A64;" d="M418.966,355.947c1.174-4.438,4.715-10.748,8.392-13.495c0.582-0.435,1.203-0.846,1.909-1.016
					c0.706-0.171,1.516-0.061,2.04,0.441c0.751,0.72,0.677,1.93,0.456,2.946c-1.405,6.474-6.8,11.906-13.265,13.354"/>
			</g>
			<g>
				<path style="fill:#455A64;" d="M418.204,374.875c1.809-4.217,4.766-7.935,8.467-10.647c0.868-0.636,1.895-1.245,2.954-1.053
					c1.606,0.291,2.335,2.253,2.193,3.879c-0.292,3.348-2.85,6.032-5.489,8.112c-2.842,2.241-7.832,4.025-7.832,4.025"/>
			</g>
			<g>
				<path style="fill:#455A64;" d="M418.632,388.481c1.858-3.163,4.171-6.137,7.203-8.202c0.659-0.448,1.372-0.86,2.161-0.968
					c0.789-0.108,1.673,0.148,2.121,0.806c0.722,1.061,0.034,2.494-0.74,3.518c-2.674,3.538-6.047,6.214-10.279,7.54"/>
			</g>
			<g>
				<path style="fill:#455A64;" d="M418.275,382.954c-3.103-3.803-6.556-7.321-10.301-10.494c-0.585-0.495-1.324-1.014-2.052-0.777
					c-0.564,0.184-0.905,0.793-0.945,1.385c-0.039,0.592,0.165,1.172,0.392,1.72c2.252,5.442,7.556,9.704,13.263,11.158"/>
			</g>
			<g>
				<path style="fill:#455A64;" d="M418.604,365.247c-2.698-3.289-5.395-6.577-8.093-9.866c-0.77-0.939-1.566-1.899-2.625-2.491
					c-1.06-0.592-2.459-0.74-3.452-0.041c-0.991,0.697-1.325,2.065-1.108,3.257c0.218,1.192,0.888,2.247,1.579,3.242
					c1.645,2.369,3.521,4.63,5.897,6.265c2.376,1.634,4.535,2.697,7.388,2.276"/>
			</g>
			<g>
				<path style="fill:#455A64;" d="M419.729,345.313c-1.571-4.699-4.413-8.965-8.144-12.226c-0.624-0.546-1.308-1.081-2.122-1.238
					c-1.622-0.313-3.187,1.041-3.712,2.607c-0.591,1.761-0.187,3.747,0.739,5.357c0.926,1.61,2.328,2.894,3.804,4.022
					c2.72,2.08,5.771,3.727,9.002,4.86"/>
			</g>
			<g>
				<path style="fill:#455A64;" d="M422.962,327.538c-0.784-5.719-3.76-10.478-7.21-15.107c-0.727-0.975-1.742-2.01-2.944-1.827
					c-0.767,0.117-1.386,0.737-1.69,1.45c-0.304,0.713-0.341,1.511-0.32,2.286c0.181,6.91,4.949,13.475,11.465,15.783"/>
			</g>
			<g>
				<path style="fill:#455A64;" d="M425.227,318.462c-0.283-2.94-0.567-5.902-0.296-8.843c0.271-2.941,1.134-5.896,2.936-8.237
					c0.774-1.006,1.746-1.907,2.938-2.343c1.192-0.436,2.631-0.336,3.605,0.478c0.902,0.754,1.28,1.999,1.234,3.174
					c-0.046,1.175-0.461,2.302-0.912,3.388C432.577,311.267,428.981,317.01,425.227,318.462"/>
			</g>
		</g>
		<g>
			<g>
				<g>
					<path style="fill:#263238;" d="M389.973,325.277c0.018,0,0.033,0.25,0.044,0.725c0.006,0.528,0.014,1.217,0.023,2.076
						c-0.002,0.901,0.003,2.003,0.051,3.282c0.042,1.279,0.051,2.736,0.157,4.343c0.14,3.217,0.452,7.04,0.94,11.267
						c0.523,4.223,1.244,8.849,2.239,13.658c1.021,4.806,2.22,9.332,3.438,13.41c1.252,4.068,2.503,7.694,3.667,10.697
						c0.548,1.514,1.126,2.852,1.601,4.04c0.47,1.191,0.908,2.202,1.272,3.026c0.336,0.79,0.606,1.424,0.813,1.91
						c0.181,0.439,0.267,0.674,0.251,0.682c-0.017,0.008-0.136-0.211-0.348-0.636c-0.23-0.476-0.531-1.097-0.905-1.87
						c-0.394-0.812-0.86-1.813-1.357-2.995c-0.503-1.179-1.106-2.51-1.678-4.019c-1.212-2.992-2.503-6.616-3.785-10.69
						c-1.247-4.083-2.465-8.622-3.49-13.445c-0.999-4.826-1.707-9.471-2.205-13.711c-0.463-4.244-0.736-8.082-0.829-11.309
						c-0.082-1.612-0.065-3.073-0.078-4.355c-0.02-1.282,0.005-2.386,0.039-3.288c0.032-0.859,0.057-1.548,0.077-2.076
						C389.933,325.526,389.954,325.277,389.973,325.277z"/>
				</g>
			</g>
			<g>
				<path style="fill:#263238;" d="M391.24,348.724c0.044-2.765,1.086-5.504,2.891-7.6c0.617-0.717,1.462-1.408,2.398-1.273
					c1.245,0.181,1.813,1.673,1.856,2.93c0.073,2.115-0.65,4.247-1.993,5.882c-1.343,1.635-2.75,2.649-4.838,2.988"/>
			</g>
			<g>
				<path style="fill:#263238;" d="M393.989,363.958c-0.156-3.274,0.896-8.333,2.809-10.995c0.302-0.421,0.637-0.835,1.081-1.103
					c0.444-0.268,1.019-0.368,1.484-0.139c0.666,0.328,0.876,1.168,0.945,1.908c0.437,4.711-2.067,9.57-6.157,11.947"/>
			</g>
			<g>
				<path style="fill:#263238;" d="M397.544,377.009c0.324-3.26,1.537-6.428,3.473-9.072c0.454-0.62,1.022-1.255,1.785-1.353
					c1.156-0.148,2.075,1.031,2.328,2.169c0.522,2.342-0.642,4.72-1.991,6.705c-1.453,2.137-4.466,4.426-4.466,4.426"/>
			</g>
			<g>
				<path style="fill:#263238;" d="M400.764,386.181c0.584-2.554,1.518-5.076,3.139-7.134c0.352-0.447,0.749-0.881,1.263-1.125
					c0.514-0.244,1.171-0.26,1.617,0.092c0.72,0.567,0.56,1.691,0.253,2.555c-1.059,2.985-2.78,5.532-5.375,7.346"/>
			</g>
			<g>
				<path style="fill:#263238;" d="M399.332,382.495c-2.931-1.921-6.04-3.573-9.272-4.927c-0.505-0.211-1.12-0.405-1.565-0.087
					c-0.344,0.247-0.446,0.735-0.345,1.146c0.101,0.411,0.364,0.762,0.637,1.086c2.704,3.22,7.233,4.98,11.432,4.742"/>
			</g>
			<g>
				<path style="fill:#263238;" d="M395.744,370.368c-2.544-1.658-5.089-3.317-7.634-4.975c-0.726-0.473-1.475-0.956-2.324-1.131
					c-0.849-0.175-1.834,0.026-2.359,0.715c-0.525,0.688-0.458,1.692-0.053,2.456c0.405,0.765,1.088,1.338,1.773,1.867
					c1.63,1.259,3.394,2.395,5.363,2.996c1.969,0.601,3.668,0.86,5.52-0.04"/>
			</g>
			<g>
				<path style="fill:#263238;" d="M392.22,356.554c-2.081-2.861-4.935-5.154-8.176-6.571c-0.542-0.237-1.123-0.454-1.711-0.386
					c-1.172,0.136-1.946,1.395-1.966,2.574c-0.023,1.326,0.679,2.591,1.657,3.488c0.977,0.897,2.208,1.469,3.456,1.92
					c2.3,0.831,4.731,1.295,7.175,1.371"/>
			</g>
			<g>
				<path style="fill:#263238;" d="M390.595,343.756c-1.764-3.725-4.816-6.325-8.161-8.733c-0.705-0.508-1.619-0.994-2.398-0.61
					c-0.497,0.245-0.785,0.8-0.838,1.351c-0.053,0.551,0.093,1.102,0.274,1.625c1.611,4.666,6.27,8.109,11.203,8.278"/>
			</g>
			<g>
				<path style="fill:#263238;" d="M390.183,337.089c-0.826-1.941-1.656-3.896-2.105-5.957c-0.449-2.061-0.497-4.258,0.226-6.24
					c0.311-0.852,0.778-1.674,1.496-2.228c0.718-0.553,1.719-0.795,2.557-0.451c0.777,0.319,1.302,1.086,1.523,1.896
					c0.222,0.81,0.182,1.667,0.108,2.503C393.639,330.608,392.426,335.293,390.183,337.089"/>
			</g>
		</g>
		<g>
			<g>
				<g>
					<path style="fill:#455A64;" d="M447.455,324.779c0.018,0,0.04,0.248,0.063,0.723c0.02,0.528,0.045,1.218,0.077,2.076
						c0.034,0.902,0.059,2.006,0.04,3.288c-0.014,1.282,0.004,2.743-0.078,4.355c-0.092,3.227-0.366,7.065-0.829,11.309
						c-0.498,4.24-1.206,8.884-2.205,13.711c-1.025,4.823-2.243,9.361-3.49,13.445c-1.282,4.073-2.573,7.697-3.785,10.69
						c-0.572,1.509-1.175,2.84-1.678,4.019c-0.497,1.182-0.964,2.182-1.357,2.995c-0.374,0.773-0.675,1.395-0.905,1.87
						c-0.212,0.425-0.332,0.644-0.348,0.636c-0.017-0.008,0.07-0.242,0.251-0.682c0.207-0.486,0.477-1.12,0.813-1.91
						c0.364-0.824,0.802-1.835,1.272-3.026c0.475-1.188,1.053-2.526,1.601-4.04c1.164-3.002,2.415-6.629,3.667-10.697
						c1.218-4.078,2.417-8.604,3.438-13.41c0.995-4.809,1.716-9.435,2.239-13.658c0.488-4.228,0.8-8.051,0.94-11.268
						c0.106-1.607,0.115-3.064,0.157-4.343c0.048-1.279,0.053-2.381,0.051-3.282c0.01-0.858,0.017-1.548,0.023-2.076
						C447.422,325.029,447.436,324.779,447.455,324.779z"/>
				</g>
			</g>
			<g>
				<path style="fill:#455A64;" d="M446.188,348.226c-0.044-2.765-1.086-5.504-2.891-7.6c-0.617-0.717-1.462-1.408-2.398-1.273
					c-1.245,0.181-1.812,1.673-1.856,2.93c-0.073,2.115,0.65,4.247,1.993,5.882c1.343,1.635,2.75,2.649,4.838,2.988"/>
			</g>
			<g>
				<path style="fill:#455A64;" d="M443.439,363.459c0.156-3.274-0.896-8.333-2.809-10.994c-0.302-0.421-0.637-0.835-1.081-1.103
					c-0.444-0.268-1.019-0.368-1.484-0.139c-0.666,0.328-0.876,1.168-0.945,1.908c-0.437,4.71,2.067,9.569,6.157,11.947"/>
			</g>
			<g>
				<path style="fill:#455A64;" d="M439.883,376.511c-0.324-3.26-1.537-6.428-3.473-9.072c-0.454-0.62-1.023-1.255-1.785-1.353
					c-1.156-0.148-2.075,1.031-2.328,2.169c-0.522,2.342,0.642,4.72,1.991,6.705c1.453,2.137,4.466,4.426,4.466,4.426"/>
			</g>
			<g>
				<path style="fill:#455A64;" d="M436.664,385.682c-0.584-2.554-1.518-5.076-3.139-7.134c-0.352-0.447-0.749-0.881-1.263-1.125
					c-0.514-0.244-1.171-0.259-1.617,0.093c-0.72,0.567-0.56,1.691-0.254,2.555c1.059,2.985,2.78,5.532,5.375,7.346"/>
			</g>
			<g>
				<path style="fill:#455A64;" d="M438.096,381.996c2.931-1.922,6.04-3.573,9.272-4.927c0.505-0.211,1.12-0.405,1.565-0.087
					c0.345,0.247,0.446,0.735,0.345,1.146c-0.101,0.412-0.365,0.762-0.637,1.087c-2.704,3.22-7.233,4.98-11.432,4.742"/>
			</g>
			<g>
				<path style="fill:#455A64;" d="M441.683,369.869c2.545-1.658,5.089-3.317,7.634-4.975c0.726-0.473,1.475-0.956,2.324-1.131
					s1.834,0.026,2.359,0.715c0.524,0.688,0.458,1.692,0.053,2.456c-0.405,0.765-1.088,1.338-1.773,1.867
					c-1.63,1.259-3.394,2.394-5.363,2.996c-1.969,0.601-3.668,0.86-5.52-0.04"/>
			</g>
			<g>
				<path style="fill:#455A64;" d="M445.208,356.055c2.081-2.861,4.934-5.154,8.176-6.571c0.542-0.237,1.123-0.454,1.711-0.386
					c1.172,0.136,1.946,1.395,1.966,2.574c0.023,1.326-0.679,2.591-1.656,3.488c-0.977,0.897-2.208,1.469-3.456,1.92
					c-2.3,0.831-4.731,1.295-7.175,1.371"/>
			</g>
			<g>
				<path style="fill:#455A64;" d="M446.833,343.257c1.765-3.725,4.816-6.325,8.161-8.733c0.705-0.508,1.619-0.994,2.398-0.61
					c0.497,0.244,0.785,0.8,0.838,1.351c0.053,0.551-0.093,1.102-0.274,1.625c-1.611,4.666-6.27,8.109-11.203,8.278"/>
			</g>
			<g>
				<path style="fill:#455A64;" d="M447.244,336.59c0.826-1.941,1.656-3.896,2.105-5.957c0.448-2.061,0.497-4.258-0.226-6.24
					c-0.311-0.852-0.778-1.674-1.496-2.228c-0.718-0.553-1.719-0.795-2.557-0.451c-0.777,0.319-1.302,1.086-1.523,1.895
					c-0.222,0.81-0.182,1.667-0.108,2.503C443.789,330.11,445.001,334.794,447.244,336.59"/>
			</g>
		</g>
		<g>
			<path style="fill:#E8505B;" d="M380.255,393.895v9.623c0,2.092,1.696,3.789,3.789,3.789h65.837c2.092,0,3.788-1.696,3.788-3.789
				v-9.623H380.255z"/>
		</g>
		<g style="opacity:0.4;">
			<polygon points="385.963,407.306 386.509,410.37 447.258,414.699 448.798,407.306 			"/>
		</g>
	</g>
</g>
</svg>
